<svg xmlns="http://www.w3.org/2000/svg" width="900" height="520" viewBox="0 0 900 520">
<rect width="100%" height="100%" fill="white"/>
<style>text{font-family:Arial,Helvetica,sans-serif;fill:#222}.axis{stroke:#333;stroke-width:1}.grid{stroke:#ddd;stroke-width:1}.bar{fill:#4c78a8}.line{fill:none;stroke:#f58518;stroke-width:3}.line2{fill:none;stroke:#4c78a8;stroke-width:3}</style>
<text x="450" y="38" text-anchor="middle" font-size="24">World Model Training Loss</text>
<line class="axis" x1="90" y1="400" x2="850" y2="400"/>
<line class="axis" x1="90" y1="80" x2="90" y2="400"/>
<polyline class="line2" points="90.0,99.9 102.9,261.4 115.8,287.9 128.6,319.6 141.5,327.9 154.4,350.7 167.3,355.4 180.2,367.4 193.1,359.9 205.9,360.0 218.8,368.7 231.7,373.2 244.6,374.8 257.5,358.5 270.3,371.6 283.2,376.9 296.1,373.7 309.0,377.4 321.9,378.6 334.7,379.7 347.6,378.8 360.5,380.9 373.4,380.8 386.3,382.2 399.2,382.0 412.0,382.7 424.9,382.7 437.8,382.3 450.7,375.2 463.6,380.9 476.4,383.3 489.3,383.7 502.2,384.1 515.1,384.7 528.0,384.9 540.8,385.3 553.7,384.9 566.6,385.8 579.5,385.2 592.4,385.9 605.3,386.4 618.1,386.1 631.0,386.6 643.9,386.7 656.8,386.6 669.7,386.5 682.5,383.8 695.4,377.5 708.3,386.0 721.2,387.3 734.1,387.1 746.9,388.2 759.8,387.9 772.7,388.7 785.6,388.2 798.5,388.4 811.4,388.5 824.2,388.7 837.1,389.1 850.0,389.2"/>
<polyline class="line" points="90.0,206.0 102.9,283.4 115.8,302.3 128.6,337.7 141.5,343.2 154.4,358.6 167.3,357.9 180.2,364.3 193.1,347.9 205.9,363.4 218.8,367.3 231.7,366.1 244.6,366.6 257.5,358.2 270.3,369.3 283.2,371.4 296.1,366.7 309.0,371.8 321.9,373.0 334.7,371.2 347.6,371.6 360.5,370.7 373.4,373.7 386.3,372.5 399.2,375.5 412.0,373.5 424.9,362.3 437.8,369.1 450.7,358.3 463.6,370.5 476.4,374.8 489.3,376.1 502.2,372.7 515.1,371.3 528.0,373.8 540.8,374.5 553.7,377.4 566.6,375.5 579.5,371.2 592.4,372.0 605.3,373.3 618.1,375.1 631.0,372.3 643.9,371.5 656.8,371.2 669.7,371.5 682.5,357.5 695.4,365.3 708.3,375.0 721.2,371.7 734.1,374.6 746.9,373.5 759.8,370.9 772.7,370.0 785.6,371.7 798.5,370.9 811.4,374.1 824.2,372.6 837.1,369.9 850.0,370.8"/>
<rect x="675" y="75" width="14" height="14" fill="#4c78a8"/><text x="696" y="88" font-size="14">train</text>
<rect x="675" y="100" width="14" height="14" fill="#f58518"/><text x="696" y="113" font-size="14">validation</text>
<text x="90" y="435" font-size="14">epoch 1</text>
<text x="850" y="435" text-anchor="end" font-size="14">epoch 60</text>
<text x="78" y="85" text-anchor="end" font-size="13">0.043</text>
<text x="78" y="400" text-anchor="end" font-size="13">0.010</text>
<text x="450" y="485" text-anchor="middle" font-size="15">Epoch</text>
<text x="26" y="240" transform="rotate(-90 26 240)" text-anchor="middle" font-size="15">Loss</text>
</svg>